<?xml version="1.0" encoding="UTF-8" standalone="no"?>
<!-- Created with Inkscape (http://www.inkscape.org/) -->

<svg
   xmlns:dc="http://purl.org/dc/elements/1.1/"
   xmlns:cc="http://creativecommons.org/ns#"
   xmlns:rdf="http://www.w3.org/1999/02/22-rdf-syntax-ns#"
   xmlns:svg="http://www.w3.org/2000/svg"
   xmlns="http://www.w3.org/2000/svg"
   xmlns:sodipodi="http://sodipodi.sourceforge.net/DTD/sodipodi-0.dtd"
   xmlns:inkscape="http://www.inkscape.org/namespaces/inkscape"
   width="210mm"
   height="297mm"
   viewBox="0 0 744.09448819 1052.3622047"
   id="svg2"
   version="1.1"
   inkscape:version="0.91 r13725"
   sodipodi:docname="VoxelWebsite Logo.svg">
  <defs
     id="defs4" />
  <sodipodi:namedview
     id="base"
     pagecolor="#ffffff"
     bordercolor="#666666"
     borderopacity="1.0"
     inkscape:pageopacity="0.0"
     inkscape:pageshadow="2"
     inkscape:zoom="0.49497475"
     inkscape:cx="-627.0879"
     inkscape:cy="539.67275"
     inkscape:document-units="px"
     inkscape:current-layer="layer1"
     showgrid="false"
     inkscape:window-width="1366"
     inkscape:window-height="705"
     inkscape:window-x="-8"
     inkscape:window-y="760"
     inkscape:window-maximized="1" />
  <metadata
     id="metadata7">
    <rdf:RDF>
      <cc:Work
         rdf:about="">
        <dc:format>image/svg+xml</dc:format>
        <dc:type
           rdf:resource="http://purl.org/dc/dcmitype/StillImage" />
        <dc:title></dc:title>
      </cc:Work>
    </rdf:RDF>
  </metadata>
  <g
     inkscape:label="Layer 1"
     inkscape:groupmode="layer"
     id="layer1">
    <path
       style="fill:#575757;fill-opacity:1"
       d="m -1067.6355,956.50753 c -12.5145,-28.5573 -23.0266,-52.63367 -23.3602,-53.50311 -0.5297,-1.38031 0.5139,-1.54393 8.2283,-1.29008 l 8.835,0.29072 13.5377,31.55517 c 7.4456,17.3553 14.0089,32.601 14.5849,33.8793 0.914,2.0283 2.76,-2.0196 14.5,-31.795 l 13.4527,-34.11915 8.7354,-0.0102 8.7354,-0.0102 -1.8832,4.75 c -7.2302,18.23785 -41.3912,100.88862 -41.936,101.46242 -0.372,0.3918 -10.9155,-22.65257 -23.43,-51.20987 z m 156.37882,45.42617 c -16.48897,-5.61611 -28.76844,-18.20817 -33.507,-34.36017 -2.28647,-7.7937 -2.10351,-22.2179 0.38322,-30.2131 3.86127,-12.4146 13.02951,-23.3918 24.72898,-29.60822 25.90314,-13.76337 57.54281,-3.80648 70.32843,22.13212 7.496,15.2074 7.62487,30.6837 0.38404,46.1207 -3.39484,7.2376 -14.56107,18.78016 -21.99299,22.73416 -11.88858,6.32511 -27.50149,7.56191 -40.32468,3.19451 z m 28.97328,-15.76911 c 11.03325,-4.53896 18.61762,-13.22056 21.51116,-24.62326 3.15199,-12.421 -0.61512,-24.9917 -10.2083,-34.0645 -7.91241,-7.4833 -12.90388,-9.4606 -23.89763,-9.4667 -8.1828,0 -9.64138,0.3003 -15.69736,3.2817 -7.38997,3.638 -13.30815,9.5811 -16.97966,17.0509 -3.3431,6.8016 -3.74343,19.6068 -0.85378,27.3094 3.58111,9.5458 12.91976,18.4329 22.55183,21.46136 6.66718,2.0964 17.20218,1.6723 23.57374,-0.9489 z m 97.62657,17.03231 c 0.43983,-0.7194 8.82386,-13.12271 18.63117,-27.56277 l 17.83148,-26.2547 -4.9159,-7.1872 c -9.78858,-14.3112 -25.93839,-38.21583 -26.64347,-39.43717 -0.55686,-0.96459 1.54982,-1.25 9.22661,-1.25 l 9.94823,0 11.20357,16.56187 11.20356,16.5619 4.72854,-6.8119 c 2.6007,-3.7465 7.75594,-11.1994 11.45609,-16.5619 l 6.72755,-9.74997 9.98839,0 9.98839,0 -4.21502,6.25 c -2.31826,3.43747 -9.53503,13.99687 -16.03726,23.46527 -6.50223,9.4685 -11.82224,17.6706 -11.82224,18.227 0,0.9013 12.2269,19.1507 30.69078,45.80766 l 6.40696,9.25001 -10.29887,-0.036 -10.29887,-0.035 -10.5,-15.59831 c -5.775,-8.57906 -11.90957,-17.59966 -13.63239,-20.04576 l -3.13238,-4.4475 -13.65519,20.0814 -13.65519,20.08127 -10.01212,0 c -7.98777,0 -9.85042,-0.2645 -9.21242,-1.3081 z m 155.29968,-50.19187 0,-51.49997 31,0 31,0 0,7 0,6.99997 -23,0 -23,0 0,14 0,14 19,0 19,0 0,7.5 0,7.5 -19,0 -19,0 0,16 0,15.99996 23,0 23,0 0,7 0,7.00001 -31,0 -31,0 0,-51.49997 z m 123,0 0,-51.49997 7.9896,0 7.9896,0 0.2604,44.24997 0.2604,44.24996 21.75,0.2695 21.75,0.2695 0,6.9805 0,6.98051 -30,0 -30,0 0,-51.49997 z m 173.5,49.69257 c -6.54818,-1.9393 -20.5,-9.08131 -20.5,-10.49411 0,-1.3167 8.23701,-12.80596 8.91481,-12.43466 11.35653,6.22076 17.05017,8.24286 24.08519,8.55376 9.48614,0.4193 14.93024,-2.1108 19.69284,-9.15196 4.51133,-6.6698 5.17899,-12.3349 2.16894,-18.4038 -1.95043,-3.9324 -3.37337,-5.2674 -8.16977,-7.6647 -5.37325,-2.6856 -6.66447,-2.9059 -17.25,-2.9433 -6.29311,-0.022 -11.44201,-0.1621 -11.44201,-0.3109 0,-0.1487 3.825,-7.2392 8.5,-15.7565 4.675,-8.5173 8.5,-15.7336 8.5,-16.0362 0,-0.3026 -6.525,-0.5502 -14.5,-0.5502 l -14.5,0 0,-8 0,-7.99997 28.10699,0 c 25.22051,0 28.04464,0.16246 27.49992,1.58198 -0.33388,0.87009 -4.20703,8.08819 -8.60698,16.04019 -4.39996,7.952 -7.99993,14.8901 -7.99993,15.418 0,0.5279 0.5625,0.9602 1.25,0.9606 2.88902,0 13.70352,6.0469 17.22534,9.6286 4.465,4.5409 8.10891,11.992 9.04795,18.5014 0.78765,5.4599 -0.92653,14.7388 -3.74946,20.2959 -3.33969,6.57426 -11.20245,14.04116 -18.05146,17.14277 -8.0641,3.6517 -21.02262,4.3477 -30.22237,1.6231 z m 112.5,-49.69257 0,-51.49997 16.25,0.0148 c 10.85712,0.01 18.34867,0.50954 22.57376,1.5056 22.05682,5.19987 35.24293,21.46807 36.86569,45.48257 1.8754,27.7531 -11.68496,48.18446 -36.14955,54.46657 -4.1923,1.0765 -10.94007,1.5304 -22.75,1.5304 l -16.7899,0 0,-51.49997 z m 41.1224,32.77976 c 6.84525,-3.04236 12.20736,-8.41756 15.4801,-15.51796 2.6272,-5.6998 2.88622,-7.2489 2.88622,-17.2618 0,-10.0307 -0.25615,-11.5558 -2.90705,-17.3082 -5.61845,-12.1919 -16.39907,-18.1918 -32.68701,-18.1918 l -7.89466,0 0,35.6311 0,35.63106 10.25,-0.464 c 7.38329,-0.3342 11.54279,-1.0386 14.8724,-2.5184 z M -1019.524,891.55602 c -61.4168,-0.30303 -111.9179,-0.80207 -112.2247,-1.10899 -0.8253,-0.82561 15.0229,-28.84026 76.6239,-135.44727 30.5079,-52.79709 136.60266,-236.6197 235.76621,-408.4947 C -647.76579,49.092219 -629.61646,17.871339 -624.8207,11.856889 l 2.04974,-2.5706203 16.59281,27.8593903 c 23.57654,39.58512 30.10144,50.861427 216.32895,373.859401 92.27833,160.05 189.45588,328.575 215.95011,374.5 59.83494,103.71768 59.95124,103.92391 59.08684,104.78906 -1.6503,1.65163 -644.10494,2.54773 -904.71175,1.2619 z m 843.45538,-19.68621 c 2.83204,-0.37469 4.64653,-1.08936 4.44098,-1.74915 -0.77622,-2.49156 -15.35794,-11.24229 -87.22951,-52.34786 -66.23211,-37.8802 -115.72752,-65.26774 -117.95337,-65.26774 -1.9905,0 -10.27971,4.30949 -39.04663,20.30001 -39.45938,21.93408 -149.80785,85.36394 -160.23762,92.10685 -6.01635,3.8896 -4.64452,4.52031 12.53707,5.76407 29.68648,2.14898 372.29143,3.20451 387.48908,1.19382 z m -519.01537,-1.00721 c 27.83186,-0.50969 34.4192,-0.88064 33,-1.8583 -2.93348,-2.02083 -150.97762,-87.28556 -178.86138,-103.01366 -22.57687,-12.7347 -26.34413,-14.54886 -29.27116,-14.0958 -7.85784,1.21627 -27.89033,12.13527 -112.40513,61.26806 -82.62924,48.03661 -95.75024,56.33511 -92.57174,58.54763 1.4244,0.99148 318.26205,0.28469 380.10941,-0.84793 z m 62.11985,-7.93933 c 0.8099,-2.11057 0.77463,-138.02915 -0.0539,-207.51356 l -0.66085,-55.42463 -25.08914,-14.42541 c -13.79899,-7.93397 -42.41411,-24.39274 -63.58911,-36.57504 -21.175,-12.18231 -60.23743,-34.64895 -86.8054,-49.92588 -26.56796,-15.27693 -48.53094,-27.55068 -48.80662,-27.27501 -1.16851,1.16852 -2.3241,84.75167 -2.35487,170.32664 l -0.0331,92.10533 26.75,15.32931 c 14.7125,8.43112 44.975,25.88914 67.25,38.7956 42.41082,24.57345 116.57328,67.50975 125.99999,72.94761 6.38681,3.68427 6.58945,3.72909 7.39301,1.63504 z m 30.49043,-3.79672 c 5.5041,-2.81048 68.83941,-39.22317 195.86656,-112.60748 l 21.25,-12.27624 0,-131.86889 c 0,-72.52788 -0.29704,-131.86888 -0.6601,-131.86888 -1.93068,0 -14.96164,7.47783 -148.03009,84.94726 l -78.06429,45.44727 -0.40052,112.55273 c -0.4738,133.14858 -0.27107,149.05274 1.89995,149.05274 0.83706,0 4.49939,-1.52033 8.13849,-3.37851 z m 444.32338,-8.87149 c -1.61699,-2.8875 -5.54722,-9.975 -8.73385,-15.75 -16.18826,-29.33727 -26.80253,-47.89327 -160.67175,-280.88866 -28.49329,-49.59173 -37.01064,-63.19954 -38.27606,-61.15205 -1.27031,2.05541 -2.46332,79.4929 -2.46561,160.04071 l -0.002,82.5 16.72139,9.42416 c 21.70322,12.23191 104.44924,59.96382 147.2214,84.92442 40.34692,23.5453 44.97286,26.09943 47.32339,26.12871 1.61996,0.0202 1.49539,-0.56302 -1.11657,-5.22729 z m -899.30737,-14.403 c 70.79979,-40.84333 164.18876,-94.93077 171.85056,-99.52948 l 8.25,-4.95176 -0.0164,-81.18288 c -0.0159,-78.50979 -1.27334,-155.66839 -2.59302,-159.10744 -0.47218,-1.23048 -1.96154,0.52076 -5.63517,6.62602 -8.49079,14.11097 -49.17593,84.2983 -102.77375,177.29854 -53.12482,92.17951 -93.36102,161.36986 -98.82852,169.94578 -3.2295,5.06559 -4.0466,8.55422 -2.0037,8.55422 0.6322,0 14.9197,-7.94385 31.75,-17.653 z M -607.0888,576.3596 c 101.12563,-56.9776 208.73165,-120.69769 208.73165,-123.60274 0,-1.15514 -14.94596,-10.33999 -52.68556,-32.37723 -60.97975,-35.60784 -156.86344,-89.91431 -168.5024,-95.43615 l -3.68796,-1.74968 -20.81203,11.35415 c -11.44662,6.24477 -41.51204,23.24111 -66.81204,37.76964 -25.3,14.52852 -64.225,36.78416 -86.5,49.45697 -41.89889,23.83734 -51.30666,29.54511 -51.42854,31.20207 -0.13454,1.82922 20.44617,14.06492 150.92854,89.73045 65.22978,37.82616 73.81563,42.77277 74.26834,42.7886 0.1476,0.005 7.5726,-4.10608 16.5,-9.13608 z M -813.35714,410.6935 c 47.62284,-28.42428 123.95635,-72.23019 161.58867,-92.73174 l 18.08865,-9.85445 0.66134,-55.46577 c 0.86747,-72.7546 0.72435,-186.116471 -0.23808,-188.574761 -1.15705,-2.95537 -10.03469,12.05434 -114.11537,192.938281 -34.81172,60.5 -70.17335,121.77906 -78.58139,136.17568 -14.87647,25.47216 -19.40382,33.6041 -19.40382,34.85273 0,0.83292 16.85285,-8.29921 32,-17.33997 z m 407.18595,9.06156 c -0.99324,-2.6125 -34.00384,-60.55 -73.35689,-128.75 -59.34327,-102.84363 -91.18421,-158.16787 -127.04898,-220.750001 -2.12757,-3.7125 -4.26007,-6.75 -4.73888,-6.75 -0.47881,0 -1.20208,3.4875 -1.60725,7.75 -1.4608,15.367727 1.34905,230.650101 3.08371,236.265261 0.25746,0.8334 3.2838,3.05631 6.72522,4.9398 3.44141,1.88349 29.65711,16.89857 58.25711,33.36683 107.95966,62.16462 137.18299,78.67811 139.23386,78.67811 0.93375,0 0.79254,-1.22427 -0.5479,-4.75 z"
       id="path4147"
       inkscape:connector-curvature="0" />
  </g>
</svg>
